<?xml version="1.0" encoding="UTF-8"?>
<svg version="1.1" xmlns="http://www.w3.org/2000/svg" width="1536" height="1024">
<path d="M0 0 C506.88 0 1013.76 0 1536 0 C1536 337.92 1536 675.84 1536 1024 C1029.12 1024 522.24 1024 0 1024 C0 686.08 0 348.16 0 0 Z " fill="#FDFCFC" transform="translate(0,0)"/>
<path d="M0 0 C7.36170832 -0.00942673 14.72337194 -0.02679497 22.0850563 -0.04753304 C31.18161032 -0.07296817 40.27810313 -0.08722972 49.37469393 -0.08782411 C54.07912871 -0.08837004 58.78343031 -0.09357464 63.48783302 -0.11170387 C119.4000772 -0.315922 119.4000772 -0.315922 140.41031265 14.23591423 C141.31781265 14.83403923 142.22531265 15.43216423 143.16031265 16.04841423 C151.45353721 24.11127144 155.5693752 34.34291597 155.91031265 45.79841423 C155.32209546 79.31487094 135.30128454 115.03666524 112.63687515 138.88825798 C110.65012904 140.9830552 108.81010007 143.13614203 106.97281265 145.36091423 C102.65492104 150.30138556 97.603049 154.25371387 92.41031265 158.23591423 C91.88550308 158.64100212 91.36069351 159.04609001 90.81998062 159.46345329 C61.61183756 181.81296868 28.40254469 189.11555678 -7.58968735 192.23591423 C-0.43026208 200.49227092 7.2421074 208.18751357 14.98757553 215.8883419 C17.25204152 218.13988717 19.51323093 220.39467917 21.77365494 222.65028191 C26.56638189 227.43166518 31.36305561 232.20907667 36.16031265 236.98591423 C41.73798873 242.53992482 47.31399997 248.09558626 52.88581467 253.65547752 C55.10667319 255.86988518 57.33053518 258.08124551 59.55453873 260.29249382 C60.92034867 261.65467015 62.2860178 263.01698769 63.65152359 264.37946892 C64.26460876 264.98738777 64.87769394 265.59530663 65.50935745 266.22164726 C68.1342829 268.84625058 70.6665319 271.4798175 73.02023697 274.35194206 C75.35327865 277.16709445 77.79444817 279.68321445 80.41031265 282.23591423 C81.59893795 283.4177669 82.78630808 284.6008826 83.97276688 285.7849102 C85.36118882 287.167281 86.74963324 288.54962921 88.13809586 289.93195915 C95.87332238 297.63455299 103.60348683 305.34220685 111.33078098 313.05275822 C116.00448696 317.71598262 120.68006137 322.37730266 125.35977554 327.03449821 C129.88913504 331.54220594 134.41366129 336.05471213 138.93480873 340.57065582 C140.66072942 342.29287103 142.38841411 344.01332024 144.11785698 345.73199844 C146.52636941 348.12609536 148.92865419 350.5262735 151.32950211 352.9280529 C152.05100449 353.64236473 152.77250687 354.35667656 153.51587296 355.0926342 C154.16495117 355.74446175 154.81402939 356.39628929 155.48277664 357.06786919 C156.33583374 357.9181609 156.33583374 357.9181609 157.20612431 358.78563023 C158.41031265 360.23591423 158.41031265 360.23591423 158.41031265 362.23591423 C159.07031265 362.23591423 159.73031265 362.23591423 160.41031265 362.23591423 C160.41031265 362.89591423 160.41031265 363.55591423 160.41031265 364.23591423 C148.63844929 361.56861861 137.01450103 358.55297793 125.41031265 355.23591423 C124.10270243 354.86251745 122.79508469 354.48914699 121.48746109 354.11579704 C115.40174091 352.37776847 109.31631901 350.63870421 103.23184586 348.89631462 C95.73680738 346.75083182 88.24019678 344.61457487 80.72281265 342.54841423 C70.95171642 339.85905659 61.23182047 336.99441527 51.50699234 334.14314079 C45.47121746 332.37485481 39.43251485 330.61659481 33.39419937 328.85700798 C28.49195737 327.42801436 23.59063751 325.996044 18.69156265 324.55622673 C17.74144302 324.27778923 16.79132339 323.99935173 15.81241226 323.71247673 C13.87757334 323.14473734 11.94348798 322.57442354 10.01016617 322.00153923 C4.76237643 320.458398 -0.49614328 318.98408957 -5.78991318 317.6080761 C-8.69714836 316.85083725 -11.59968316 316.07630922 -14.502285 315.30152702 C-15.91878849 314.92886243 -17.33757284 314.56474659 -18.75863266 314.20985222 C-27.00483556 312.14805689 -33.29094952 310.21962795 -38.58968735 303.23591423 C-39.23937485 302.51403923 -39.88906235 301.79216423 -40.55843735 301.04841423 C-41.06374985 300.45028923 -41.56906235 299.85216423 -42.08968735 299.23591423 C-44.84365344 296.03934644 -47.73761969 293.06250122 -50.74789047 290.10896111 C-52.51539121 288.31147096 -54.16640772 286.46050155 -55.80843735 284.54841423 C-59.61956779 280.16460599 -63.58758922 275.94501743 -67.58968735 271.73591423 C-72.11478221 266.97676274 -76.54949328 262.17066879 -80.85238266 257.20954704 C-83.80887628 253.85087722 -86.88988197 250.61094489 -89.96468735 247.36091423 C-94.03053009 243.04544489 -98.08447678 238.72731647 -102.02718735 234.29841423 C-106.01533754 229.83138672 -110.10703991 225.46768693 -114.21468735 221.11091423 C-114.89482895 220.38952263 -115.57497055 219.66813103 -116.2757225 218.92487907 C-119.09318998 215.93837675 -121.91200075 212.95314671 -124.73177719 209.96882439 C-126.79043555 207.78876162 -128.84650524 205.60628315 -130.90218735 203.42341423 C-131.53012192 202.76003044 -132.15805649 202.09664665 -132.80501938 201.41316032 C-133.68262924 200.48044304 -133.68262924 200.48044304 -134.5779686 199.52888298 C-135.08884018 198.98771843 -135.59971176 198.44655388 -136.1260643 197.8889904 C-137.58968735 196.23591423 -137.58968735 196.23591423 -138.80990219 194.16097832 C-140.46730607 191.98040305 -140.46730607 191.98040305 -143.2662468 191.75489616 C-144.88174171 191.76821983 -144.88174171 191.76821983 -146.52987289 191.78181267 C-148.36143181 191.78226585 -148.36143181 191.78226585 -150.22999191 191.7827282 C-151.54880859 191.80337334 -152.86762527 191.82401848 -154.2264061 191.84528923 C-155.58974504 191.85275097 -156.95309471 191.85844422 -158.31644821 191.86244011 C-161.90225539 191.87770214 -165.48741295 191.91698751 -169.07296371 191.96125603 C-172.73274574 192.00219727 -176.39263288 192.02044859 -180.05257797 192.04060173 C-187.23191037 192.08348235 -194.41070779 192.15173915 -201.58968735 192.23591423 C-201.98236801 192.93825188 -202.37504868 193.64058952 -202.77962875 194.36421013 C-204.59081434 197.60297507 -206.40274672 200.84132165 -208.21468735 204.07966423 C-208.83214828 205.18406853 -209.44960922 206.28847282 -210.0857811 207.42634392 C-213.88577564 214.21633417 -217.71576912 220.98783427 -221.58968735 227.73591423 C-224.8738344 233.45893925 -228.13216459 239.19432064 -231.3435936 244.95857048 C-231.97716782 246.09552361 -232.61074203 247.23247673 -233.26351547 248.40388298 C-234.49791133 250.62247657 -235.72979127 252.84247235 -236.95882797 255.06403923 C-237.51892563 256.07079704 -238.07902328 257.07755486 -238.6560936 258.11482048 C-239.15052963 259.00757683 -239.64496567 259.90033318 -240.15438461 260.82014275 C-240.62803452 261.61734734 -241.10168442 262.41455193 -241.58968735 263.23591423 C-241.94941635 263.99114372 -242.30914536 264.74637321 -242.67977524 265.52448845 C-245.94389469 268.44938649 -249.86243227 267.77807226 -254.08187485 267.73982048 C-255.04309753 267.74806343 -256.00432022 267.75630638 -256.99467087 267.76479912 C-259.06888517 267.782021 -261.14317949 267.79110732 -263.21746445 267.7929821 C-268.68984442 267.80213659 -274.16098175 267.88247187 -279.6326561 267.96638298 C-280.73343994 267.98267754 -281.83422379 267.99897209 -282.96836472 268.01576042 C-292.93717825 268.18970452 -302.84482785 268.75887682 -312.77718735 269.61091423 C-313.5328801 269.67542778 -314.28857285 269.73994133 -315.06716537 269.80640984 C-325.69883311 270.73432209 -336.27273445 271.97229094 -346.80843735 273.68513298 C-349.82431676 274.12442946 -352.55603088 274.36231658 -355.58968735 274.23591423 C-349.69071845 261.95679167 -343.09032594 250.13672232 -336.3382225 238.3096447 C-333.41704282 233.17453548 -330.53489812 228.01768732 -327.65218735 222.86091423 C-326.47512061 220.75673828 -325.29803722 218.65257164 -324.12093735 216.54841423 C-323.53699203 215.50427361 -322.95304672 214.46013298 -322.3514061 213.38435173 C-320.60956809 210.2714439 -318.86563244 207.15972151 -317.12093735 204.04841423 C-310.53444557 192.30094165 -303.96970298 180.54177269 -297.44149399 168.76179314 C-293.09180285 160.91919667 -288.71290296 153.09314965 -284.32992172 145.26911736 C-283.67437443 144.09873279 -283.01883643 142.92834302 -282.36330795 141.75794792 C-280.77219226 138.91721894 -279.18098287 136.07654248 -277.58968735 133.23591423 C-276.3202349 133.23352588 -275.05078245 133.23113752 -273.74286175 133.2286768 C-243.55928018 133.17122667 -213.37577772 133.09843234 -183.19228199 133.00692795 C-179.47131653 132.99566077 -175.7503507 132.98452216 -172.02938461 132.97346306 C-170.91829198 132.97015753 -170.91829198 132.97015753 -169.78475303 132.96678523 C-157.81565712 132.93148299 -145.84656126 132.90657902 -133.8774327 132.88556721 C-121.5816539 132.86374864 -109.28594224 132.83064116 -96.99022061 132.78721267 C-89.41269032 132.76079986 -81.83524357 132.74302831 -74.25766958 132.73656819 C-68.43179941 132.73065447 -62.60606708 132.70897902 -56.78026199 132.68163872 C-54.40160374 132.67289047 -52.02292073 132.6691292 -49.64424706 132.67090607 C-26.63620696 132.6826599 -5.22788431 130.53276699 12.5314064 114.20857048 C20.06154564 106.30270704 25.7543554 96.32571906 26.57437515 85.27497673 C26.29018051 81.74284326 24.73403871 79.80424303 22.41031265 77.23591423 C15.74549859 72.3249986 9.02211383 71.94154583 1.04596329 71.95744133 C0.00361444 71.95164893 -1.03873441 71.94585653 -2.11266959 71.9398886 C-5.60422642 71.92288784 -9.09565107 71.92001198 -12.58724594 71.91706657 C-15.09056548 71.90776847 -17.59388192 71.89759997 -20.09719467 71.88662529 C-25.48607522 71.86495921 -30.87492119 71.84934793 -36.26383209 71.83925819 C-44.05523982 71.82465974 -51.84658162 71.79911966 -59.63795061 71.77092691 C-72.27956023 71.7254801 -84.92117935 71.68885657 -97.56283188 71.65778923 C-109.84149468 71.62759504 -122.12013425 71.59324078 -134.39876938 71.55329704 C-135.15588991 71.55083549 -135.91301045 71.54837395 -136.69307403 71.5458378 C-140.49140455 71.53346303 -144.28973479 71.52100653 -148.08806491 71.5085094 C-179.58857418 71.40497321 -211.08910907 71.31590667 -242.58968735 71.23591423 C-241.3474678 67.41919375 -240.04198953 63.94186076 -238.11312485 60.41950798 C-237.36591171 59.04701897 -237.36591171 59.04701897 -236.60360336 57.6468029 C-236.06276108 56.66558464 -235.52191879 55.68436638 -234.96468735 54.67341423 C-234.39999741 53.63998894 -233.83530746 52.60656364 -233.25350571 51.54182243 C-231.37174037 48.1031036 -229.48171517 44.66899103 -227.58968735 41.23591423 C-226.89612277 39.97617197 -226.2026014 38.71640592 -225.50912094 37.45661736 C-221.52542604 30.22181958 -217.53351678 22.99161598 -213.53329086 15.76594353 C-210.86556313 10.93349427 -208.2303014 6.0832118 -205.58968735 1.23591423 C-137.06145491 0.41058462 -68.53283027 0.08098716 0 0 Z " fill="#0548BB" transform="translate(1134.589687347412,235.76408576965332)"/>
<path d="M0 0 C36.96 0 73.92 0 112 0 C110.5985666 4.20430019 109.52740008 7.12746692 107.3828125 10.80859375 C106.60550781 12.15824219 106.60550781 12.15824219 105.8125 13.53515625 C105.255625 14.49292969 104.69875 15.45070312 104.125 16.4375 C99.57031592 24.37277182 95.18273972 32.36261911 91 40.5 C87.07564025 48.11802643 83.00496601 55.62411198 78.75 63.0625 C73.66286793 71.95574299 68.79256955 80.94619643 64 90 C58.71897232 99.9732163 53.31780429 109.85833672 47.72265625 119.66015625 C43.88740797 126.39082711 40.17035252 133.1781406 36.5 140 C31.77506492 148.77548599 26.9397919 157.47943173 22.015625 166.14453125 C17.79777839 173.57117026 13.63944754 181.02940881 9.5 188.5 C3.25145142 199.77055981 -3.06407259 211.00137088 -9.42041016 222.21142578 C-10.99553602 224.99211939 -12.56680048 227.77495715 -14.13671875 230.55859375 C-19.93469983 240.83752337 -25.75596723 251.10301849 -31.60507202 261.35293579 C-32.32207361 262.60955338 -33.03873262 263.86636651 -33.7550354 265.12338257 C-34.75614086 266.87977022 -35.75889565 268.63521748 -36.76171875 270.390625 C-37.33881592 271.40157227 -37.91591309 272.41251953 -38.51049805 273.45410156 C-41.70046257 278.90647824 -41.70046257 278.90647824 -44.89477539 279.90380859 C-46.11672607 280.14953613 -47.33867676 280.39526367 -48.59765625 280.6484375 C-49.25911652 280.78593918 -49.92057678 280.92344086 -50.6020813 281.06510925 C-52.01855476 281.35895975 -53.43610712 281.64764781 -54.85458374 281.93167114 C-58.54188283 282.67204618 -62.22006377 283.45494597 -65.8984375 284.23828125 C-66.61652084 284.39060715 -67.33460419 284.54293304 -68.07444763 284.69987488 C-75.17875995 286.22253293 -82.06481231 288.19134429 -88.984375 290.38183594 C-91.18803906 291.05766896 -93.40254843 291.67788832 -95.625 292.2890625 C-118.8077625 298.67080863 -141.50629582 306.56748175 -163.93237305 315.21899414 C-165.60735654 315.85168657 -167.30138807 316.43379602 -169 317 C-167.72520043 309.38248603 -164.96477264 303.57089921 -161.1875 296.875 C-160.60782471 295.82658936 -160.02814941 294.77817871 -159.4309082 293.69799805 C-157.63399646 290.45762955 -155.82009727 287.22739409 -154 284 C-153.46375 283.04722168 -152.9275 282.09444336 -152.375 281.11279297 C-150.28405836 277.40202497 -148.18836395 273.69402665 -146.08422852 269.99072266 C-141.70393033 262.27686718 -137.4029396 254.52086769 -133.125 246.75 C-132.45012005 245.52441069 -131.77523398 244.29882476 -131.1003418 243.07324219 C-130.59820412 242.16135635 -130.59820412 242.16135635 -130.08592224 241.23104858 C-129.75077103 240.62241974 -129.41561981 240.01379089 -129.0703125 239.38671875 C-128.73479874 238.77736481 -128.39928497 238.16801086 -128.05360413 237.54019165 C-124.38189533 230.87383846 -120.69358649 224.21675175 -117 217.5625 C-116.4136377 216.50450195 -115.82727539 215.44650391 -115.22314453 214.35644531 C-110.87793675 206.532855 -106.4410044 198.77175769 -102 191 C-154.47 191 -206.94 191 -261 191 C-261.99 193.97 -261.99 193.97 -263 197 C-264.0207906 199.04107386 -265.09242889 201.05720404 -266.203125 203.05078125 C-266.51728867 203.61789322 -266.83145233 204.18500519 -267.15513611 204.76930237 C-268.18188492 206.61979256 -269.2158177 208.46615552 -270.25 210.3125 C-270.97346858 211.61256744 -271.69652611 212.91286369 -272.41918945 214.21337891 C-274.25711034 217.51777074 -276.10121998 220.81865965 -277.9475708 224.11834717 C-279.53926725 226.96416343 -281.12670423 229.81235388 -282.71484375 232.66015625 C-287.22031215 240.72871544 -291.74045535 248.7887323 -296.3046875 256.82421875 C-297.39073652 258.73691585 -298.47667504 260.6496757 -299.5625 262.5625 C-300.08787354 263.48764404 -300.61324707 264.41278809 -301.15454102 265.3659668 C-305.8161327 273.60723757 -310.32333995 281.92936298 -314.77563477 290.28540039 C-315.28537842 291.23664795 -315.79512207 292.18789551 -316.3203125 293.16796875 C-316.76648926 294.00610107 -317.21266602 294.8442334 -317.67236328 295.70776367 C-319.0115185 298.01988731 -320.20422439 300.01587706 -322 302 C-324.13390636 302.49219131 -324.13390636 302.49219131 -326.65068054 302.48101807 C-327.60560394 302.48651672 -328.56052734 302.49201538 -329.54438782 302.49768066 C-331.11315926 302.47610901 -331.11315926 302.47610901 -332.71362305 302.45410156 C-333.8162146 302.45468567 -334.91880615 302.45526978 -336.05480957 302.45587158 C-339.7074304 302.45307987 -343.35924009 302.42193518 -347.01171875 302.390625 C-349.54091445 302.38316651 -352.07011592 302.37747173 -354.59931946 302.37347412 C-360.58113958 302.35975038 -366.56261032 302.3282099 -372.54429036 302.28807616 C-379.35434624 302.24337575 -386.16441603 302.22137584 -392.97458208 302.20129442 C-406.98321655 302.15947739 -420.99159229 302.08911463 -435 302 C-433.68381029 297.94261403 -432.2309994 294.28912236 -430.19921875 290.53515625 C-429.64113525 289.5002002 -429.08305176 288.46524414 -428.50805664 287.39892578 C-427.6068811 285.74739502 -427.6068811 285.74739502 -426.6875 284.0625 C-426.06157959 282.90733887 -425.43565918 281.75217773 -424.79077148 280.56201172 C-420.28293301 272.26049434 -415.64734669 264.03398803 -410.9675293 255.82836914 C-406.34980274 247.69880412 -401.93764559 239.46444927 -397.54830933 231.21035767 C-392.66941165 222.04141913 -387.63718111 212.97142046 -382.4921875 203.94921875 C-379.01815679 197.84386775 -375.68255561 191.68414806 -372.43408203 185.45654297 C-369.41759117 179.70859465 -366.22035114 174.07323668 -363 168.4375 C-357.58629645 158.94875708 -352.41517681 149.34553726 -347.3125 139.6875 C-342.48792867 130.5562215 -337.6457554 121.44257275 -332.59155273 112.43554688 C-329.29257811 106.55160138 -326.07849771 100.62390334 -322.875 94.6875 C-317.96675168 85.59685046 -313.00001646 76.54033744 -308 67.5 C-303.04573537 58.54102584 -298.11885505 49.56829553 -293.25 40.5625 C-292.72929932 39.59973145 -292.20859863 38.63696289 -291.67211914 37.64501953 C-289.56086849 33.73994981 -287.45054656 29.83437986 -285.34130859 25.92822266 C-283.70953429 22.90894023 -282.0739046 19.89177482 -280.4375 16.875 C-279.94862305 15.9682251 -279.45974609 15.0614502 -278.95605469 14.12719727 C-278.49489258 13.27826904 -278.03373047 12.42934082 -277.55859375 11.5546875 C-277.15954834 10.81718262 -276.76050293 10.07967773 -276.34936523 9.31982422 C-275.90407471 8.55428223 -275.45878418 7.78874023 -275 7 C-274.30321892 5.46430359 -274.30321892 5.46430359 -273.59236145 3.89758301 C-270.70245408 0.66742138 -270.30753412 0.55613488 -266.22906494 0.2784729 C-264.21035737 0.26106173 -262.19120196 0.27707355 -260.17285156 0.31884766 C-259.07011398 0.3179715 -257.9673764 0.31709534 -256.83122253 0.31619263 C-253.18363794 0.32037522 -249.53788861 0.36706357 -245.890625 0.4140625 C-243.36286422 0.42525213 -240.83509044 0.43379341 -238.30731201 0.43978882 C-232.3324033 0.46036245 -226.35828326 0.50765545 -220.3836906 0.56788576 C-213.58091857 0.63497475 -206.77811486 0.66794565 -199.97509432 0.69805837 C-185.98303118 0.76075651 -171.99155169 0.86627623 -158 1 C-159.27096565 3.55189706 -160.54301115 6.10324629 -161.81567383 8.65429688 C-162.35095074 9.72946564 -162.35095074 9.72946564 -162.89704132 10.82635498 C-165.70578774 16.45330522 -168.64255674 21.99710998 -171.6875 27.5 C-172.72440492 29.38647335 -173.76084656 31.27320141 -174.796875 33.16015625 C-175.32345703 34.11809082 -175.85003906 35.07602539 -176.39257812 36.06298828 C-178.55182293 40.00826698 -180.6832165 43.96830798 -182.81591797 47.92797852 C-188.08054206 57.69868329 -193.42837057 67.41243688 -198.98413086 77.02124023 C-204.99527497 87.51984592 -210.38879603 98.2451924 -216 109 C-164.19 108.67 -112.38 108.34 -59 108 C-54.38 99.42 -49.76 90.84 -45 82 C-40.4375 73.875 -40.4375 73.875 -38.32421875 70.15234375 C-35.39355595 64.95361401 -32.58013683 59.69138434 -29.75 54.4375 C-24.89795211 45.43254861 -19.94065016 36.49583475 -14.84082031 27.62866211 C-9.6429715 18.53242669 -4.89239712 9.29555452 0 0 Z " fill="#21272E" transform="translate(790,237)"/>
<path d="M0 0 C2.12732494 -0.0007239 4.25464389 -0.00288276 6.38196731 -0.00549722 C13.88692851 -0.014689 21.39187226 -0.01884087 28.8968389 -0.01804566 C35.00038147 -0.01751548 41.1038596 -0.02452293 47.20738578 -0.03855348 C88.94931235 -0.13224364 130.58385632 0.01961006 172.16563773 4.16725707 C173.92466765 4.3348149 175.68378358 4.50147218 177.44298148 4.66725707 C182.56034207 5.15270073 187.67563807 5.6576153 192.79063773 6.16725707 C194.50190017 6.33685926 196.2131632 6.5064556 197.92442679 6.67604613 C202.09612208 7.09046054 206.26737567 7.50912389 210.43840384 7.93019652 C212.67725648 8.15583039 214.91630911 8.37938687 217.15538383 8.60280395 C237.7265113 10.66888154 258.07068947 13.46371331 278.43089652 17.05512023 C283.09625715 17.87760871 287.76635132 18.66069851 292.44298148 19.41725707 C308.68719048 22.06941715 324.62954515 25.51361926 340.61387992 29.40212035 C343.27532076 30.04314061 345.93908263 30.66148005 348.61095023 31.25710082 C379.44650776 38.13755336 409.79908536 48.67073684 438.79063773 61.16725707 C435.3887116 62.30123245 434.55490244 62.02639191 431.22423148 61.01491332 C430.28128226 60.73695922 429.33833304 60.45900512 428.36680961 60.17262816 C427.33104789 59.8614807 426.29528617 59.55033324 425.22813773 59.22975707 C398.04488047 51.35014484 370.18088466 45.00045923 342.21983695 40.62770629 C339.79063773 40.16725707 339.79063773 40.16725707 337.79063773 39.16725707 C336.43205085 38.92617662 335.0656394 38.72832308 333.69688773 38.55397582 C332.84723441 38.44263305 331.99758109 38.33129027 331.1221807 38.21657348 C330.18777152 38.09717406 329.25336234 37.97777465 328.29063773 37.85475707 C322.30347846 37.07424481 316.32708375 36.28444054 310.37657523 35.25710082 C289.3815451 31.67460093 268.17790295 29.95423862 246.98057914 28.02176452 C241.2919117 27.50143213 235.60922361 26.9456905 229.92857718 26.34439635 C219.95710796 25.29644686 210.00148452 24.65332607 199.98546195 24.21681762 C197.45017961 24.10626331 194.9153495 23.98807236 192.38048148 23.86842895 C187.85927232 23.65871186 183.33745718 23.46942154 178.81499076 23.28896117 C176.74672748 23.20573143 174.67857373 23.11974628 172.61052299 23.03139281 C149.21143811 22.04444422 125.83142005 22.00567986 102.41563773 22.04225707 C100.41208753 22.04483556 98.40853731 22.04740917 96.4049871 22.04997802 C83.97496349 22.06770096 71.54509345 22.10614304 59.11516929 22.15809417 C55.87076878 22.17088304 52.62635764 22.1796392 49.38194633 22.18922973 C20.8689552 22.30129526 -7.56409992 23.96417202 -36.02186227 25.60475707 C-36.97643193 25.65962153 -37.9310016 25.714486 -38.91449761 25.77101302 C-44.48094105 26.09178765 -50.04692858 26.41931538 -55.61244988 26.7557199 C-57.3195984 26.8585692 -59.02682306 26.96016471 -60.7341311 27.06033111 C-70.36795995 27.62830757 -79.94860402 28.40117176 -89.5421288 29.453264 C-95.86353185 30.14511606 -102.18530792 30.6519231 -108.52967477 31.08522582 C-123.09443134 32.15025965 -137.58156682 33.78362917 -152.08436227 35.47975707 C-153.43109818 35.63612599 -154.77784926 35.79236437 -156.12461495 35.94847655 C-187.91877866 39.63799017 -219.5132588 44.00202688 -251.05311227 49.4529016 C-254.93580385 50.12304788 -258.82227978 50.7691375 -262.70936227 51.41335082 C-278.10226144 54.00743354 -293.16069977 57.4469753 -308.26014352 61.39772582 C-311.98656342 62.37004995 -315.72136158 63.30298004 -319.45936227 64.22975707 C-320.67108102 64.53397582 -321.88279977 64.83819457 -323.13123727 65.15163207 C-326.30519766 65.94592611 -329.48340478 66.72185617 -332.66248727 67.49538207 C-394.02483309 82.50223111 -459.51702193 103.01586446 -513.20936227 137.16725707 C-514.16624948 137.77150512 -514.16624948 137.77150512 -515.14246774 138.3879602 C-541.53738592 155.17323948 -568.57366084 176.65398911 -576.28358102 208.42506957 C-580.33033448 227.23194694 -575.30545217 244.08907647 -565.20936227 260.16725707 C-562.71537885 263.6659741 -560.03314893 266.93100719 -557.20936227 270.16725707 C-556.52100289 270.97678832 -555.83264352 271.78631957 -555.12342477 272.62038207 C-537.66023162 292.66837999 -514.52436362 309.56199211 -491.20936227 322.16725707 C-495.58629698 323.62623531 -498.63872457 321.676917 -502.70936227 319.97975707 C-503.58012399 319.62317016 -504.45088571 319.26658324 -505.34803414 318.89919066 C-553.65373611 298.91788931 -615.20532191 273.05254348 -637.27186227 221.66725707 C-641.97610358 207.39175662 -640.68108459 190.0961978 -634.66639352 176.41725707 C-619.72104689 146.88156017 -593.55711781 126.18189819 -565.20936227 110.16725707 C-564.43205758 109.72059691 -563.65475289 109.27393676 -562.85389352 108.81374145 C-531.7580402 90.9999154 -498.21075735 78.22379123 -464.20936227 67.16725707 C-462.94909722 66.75674605 -462.94909722 66.75674605 -461.66337228 66.33794188 C-452.47509408 63.35700634 -443.28245749 60.57981345 -433.92982125 58.15871215 C-429.94616259 57.0971177 -426.00451758 55.92850964 -422.05701852 54.74147582 C-412.33090989 51.84160555 -402.50606997 49.38178879 -392.64686227 46.97975707 C-391.6925834 46.74658782 -390.73830453 46.51341857 -389.75510812 46.27318358 C-359.09181863 38.8075122 -328.08649869 31.55143151 -296.74256539 27.60280395 C-293.91039846 27.11585466 -291.16224239 26.3900595 -288.37961984 25.6789453 C-284.66994719 24.80430449 -280.91819723 24.25055584 -277.15076852 23.68678832 C-276.27440743 23.5532495 -275.39804635 23.41971068 -274.49512887 23.28212523 C-271.58820736 22.84221964 -268.68022644 22.41001709 -265.77186227 21.97975707 C-264.75760171 21.82896697 -263.74334115 21.67817687 -262.69834542 21.52281737 C-208.76150558 13.53935602 -154.61479731 7.6708975 -100.20936227 4.16725707 C-99.19398385 4.10173644 -98.17860543 4.03621581 -97.13245797 3.96870971 C-89.59617177 3.48382024 -82.05924335 3.00979989 -74.52186227 2.54225707 C-73.51890115 2.47972747 -72.51594003 2.41719787 -71.48258615 2.35277343 C-70.01521508 2.26178878 -70.01521508 2.26178878 -68.51820016 2.16896605 C-67.67092858 2.11635116 -66.82365701 2.06373626 -65.95071054 2.00952697 C-43.95215027 0.69875358 -22.04054884 0.00424245 0 0 Z " fill="#0741B2" transform="translate(863.2093622684479,136.83274292945862)"/>
<path d="M0 0 C1.01271973 0.10183594 2.02543945 0.20367188 3.06884766 0.30859375 C57.87668061 5.94686582 111.92103519 19.59098519 163.6875 38.25 C164.3862323 38.50062195 165.0849646 38.7512439 165.80487061 39.00946045 C186.44407506 46.44407506 186.44407506 46.44407506 191 51 C191.0625 53.3125 191.0625 53.3125 190 56 C180.97860399 64.2012691 167.94993531 66.82226494 156.3125 69.125 C155.04994385 69.37797852 153.7873877 69.63095703 152.48657227 69.89160156 C134.82340457 73.31876685 117.14500613 74.99000028 99.1953125 75.98046875 C98.43734438 76.02265974 97.67937626 76.06485073 96.89843941 76.10832024 C76.88238255 77.20768004 56.84949479 77.80141452 36.81274414 78.37768555 C32.61794077 78.49837398 28.42330187 78.62323561 24.22875977 78.75268555 C-46.74780508 80.94243395 -117.68796456 81.13867764 -188.69222409 81.07202798 C-201.08516614 81.06059867 -213.47810894 81.05528949 -225.87105501 81.05032361 C-251.24737585 81.04002679 -276.62368731 81.0225792 -302 81 C-299.4800684 78.37210951 -297.05426807 76.78684769 -293.828125 75.06640625 C-292.78358154 74.50630859 -291.73903809 73.94621094 -290.6628418 73.36914062 C-289.536604 72.77294922 -288.41036621 72.17675781 -287.25 71.5625 C-286.06861085 70.93323443 -284.88737922 70.30367302 -283.70629883 69.67382812 C-281.29466321 68.38954547 -278.88093257 67.10932851 -276.46533203 65.83251953 C-273.36836028 64.19479444 -270.27570743 62.54921285 -267.18359375 60.90234375 C-211.97853185 31.64449227 -153.53560891 7.13415246 -91 0 C-90.08186523 -0.11569336 -89.16373047 -0.23138672 -88.21777344 -0.35058594 C-59.27290074 -3.97003755 -28.95694385 -3.01237753 0 0 Z " fill="#22272F" transform="translate(897,567)"/>
<path d="M0 0 C2.33224942 0.30348499 4.66466362 0.57871161 7.00244141 0.83544922 C16.74490147 1.93305439 26.24581724 3.76779536 35.83300781 5.76855469 C38.72726932 6.36390779 41.62550869 6.9347003 44.52587891 7.49951172 C59.63553823 10.44797218 74.63751853 13.75175195 89.60791016 17.33935547 C90.86023438 17.63712891 92.11255859 17.93490234 93.40283203 18.24169922 C111.56174807 22.57116672 129.39525723 27.51896054 147.16894531 33.23925781 C150.15667239 34.19500807 153.14903921 35.1339718 156.14480591 36.06416321 C166.87132752 39.39532651 177.55471539 42.85678652 188.23291016 46.33935547 C189.26349548 46.67517639 190.29408081 47.01099731 191.355896 47.35699463 C212.73689048 54.33197757 234.0377434 61.53841918 255.32128906 68.80419922 C267.56085882 72.97752157 279.81390646 77.10508507 292.11259079 81.10092545 C294.04343695 81.7286478 295.97311401 82.3599628 297.90274048 82.99142456 C321.3721317 90.56987499 344.89086818 95.41510323 369.58447266 95.57763672 C370.8133017 95.58720398 372.04213074 95.59677124 373.30819702 95.60662842 C377.28310616 95.63119094 381.2579427 95.64403278 385.23291016 95.65185547 C385.90777466 95.65374249 386.58263916 95.6556295 387.2779541 95.6575737 C412.69656896 95.72241807 438.60680952 95.43968066 463.60791016 90.33935547 C465.04419472 90.27669035 466.48296565 90.252492 467.92041016 90.27685547 C469.13728516 90.29748047 470.35416016 90.31810547 471.60791016 90.33935547 C467.8593102 94.41111059 464.01538573 97.15049151 459.23291016 99.90185547 C458.59869141 100.27503906 457.96447266 100.64822266 457.31103516 101.03271484 C456.03419278 101.78188256 454.75222615 102.52238388 453.46533203 103.25415039 C451.7274098 104.26953739 450.04358128 105.37595894 448.36572266 106.48779297 C443.56069784 109.21073012 438.25688959 109.67301542 432.85791016 110.40185547 C431.700896 110.56685547 430.54388184 110.73185547 429.35180664 110.90185547 C425.77295393 111.40180484 422.19154815 111.87506023 418.60791016 112.33935547 C417.60840332 112.47196777 416.60889648 112.60458008 415.57910156 112.74121094 C392.55766365 115.73318081 369.3434279 117.16398613 346.203125 118.91357422 C341.8644251 119.2422677 337.52685917 119.58172155 333.18994141 119.93310547 C323.25001707 120.73520437 313.30659911 121.43002469 303.35400391 122.05419922 C302.33023651 122.11857681 301.30646912 122.18295441 300.25167847 122.24928284 C295.11456428 122.57150219 289.97723219 122.88915049 284.83935547 123.19897461 C274.48051373 123.83362914 264.15689231 124.61912884 253.8288269 125.64102173 C247.03234687 126.31169654 240.23843621 126.81491145 233.42041016 127.21435547 C230.76145917 127.37831408 228.10260686 127.54344396 225.44384766 127.71044922 C224.70857346 127.75647781 223.97329926 127.80250641 223.21574402 127.84992981 C212.57883107 128.52225851 201.94729176 129.27540142 191.31488037 130.01483154 C172.31380565 131.33563683 153.31197032 132.64392567 134.30593872 133.89163208 C132.31361276 134.02248267 130.32132283 134.15388308 128.32907104 134.28585815 C125.59269985 134.46687163 122.85619434 134.64568083 120.11962891 134.82373047 C119.32345154 134.87664749 118.52727417 134.92956451 117.70697021 134.98408508 C114.00116531 135.22240092 110.32176551 135.40017037 106.60791016 135.33935547 C109.1674472 132.77981843 110.99763759 132.61199342 114.52197266 131.82373047 C115.74625977 131.54513184 116.97054687 131.2665332 118.23193359 130.97949219 C118.88415894 130.83445251 119.53638428 130.68941284 120.20837402 130.53997803 C123.63410166 129.77747736 127.05412394 128.99004301 130.47509766 128.20654297 C131.16567261 128.049086 131.85624756 127.89162903 132.56774902 127.72940063 C146.28114659 124.59616298 159.92092262 121.16098302 173.44921875 117.3059082 C181.74904631 114.96676459 190.13115002 112.94684769 198.51318359 110.92553711 C205.13086593 109.30502438 211.57459008 107.43688824 218.01757812 105.22094727 C220.97834212 104.21328291 223.97018965 103.36463939 226.98291016 102.52685547 C231.93267679 101.00062755 236.61803511 99.17133701 241.29541016 96.96435547 C242.45427734 96.42037109 243.61314453 95.87638672 244.80712891 95.31591797 C248.1582661 92.95095922 248.74773449 91.27951495 249.60791016 87.33935547 C249.05706253 87.15814148 248.5062149 86.97692749 247.93867493 86.79022217 C242.62656612 85.03260368 237.34981614 83.19582436 232.08837891 81.29248047 C230.43090988 80.69581415 228.77335378 80.09938966 227.11572266 79.50317383 C226.24979492 79.1915329 225.38386719 78.87989197 224.49169922 78.55880737 C208.07787506 72.65720976 191.62169523 66.89272352 175.10791016 61.27685547 C174.20599945 60.97001831 173.30408875 60.66318115 172.37484741 60.3470459 C167.26725447 58.61085098 162.15714769 56.882274 157.04458618 55.1607666 C154.60344716 54.33785098 152.16366288 53.51099932 149.72387695 52.68408203 C141.6767228 49.96643789 133.64005441 47.37015975 125.42041016 45.21435547 C124.03063965 44.84225952 124.03063965 44.84225952 122.61279297 44.46264648 C119.94585936 43.74962822 117.2771844 43.04355182 114.60791016 42.33935547 C113.241917 41.97647953 111.87602085 41.6132381 110.51025391 41.24951172 C108.17921645 40.62873276 105.84764444 40.00995524 103.51538086 39.39379883 C100.89606267 38.69437594 98.28747172 37.96553076 95.68310547 37.21240234 C84.2546175 33.92292717 72.75434835 31.29331098 61.10791016 28.90185547 C59.71643265 28.61396149 59.71643265 28.61396149 58.29684448 28.32025146 C27.57579337 21.97253932 -2.92240426 16.57726497 -34.28955078 14.61401367 C-37.39208984 14.33935547 -37.39208984 14.33935547 -39.68022156 13.83126831 C-42.79572189 13.2661396 -45.71763922 13.20471266 -48.88452148 13.1940918 C-50.18100113 13.18771194 -51.47748077 13.18133209 -52.81324768 13.17475891 C-54.22624677 13.1732279 -55.63924636 13.17211519 -57.05224609 13.17138672 C-58.52176444 13.1681665 -59.99128247 13.16480187 -61.46080017 13.16130066 C-64.54833719 13.15531423 -67.63584627 13.15345973 -70.72338867 13.15405273 C-73.85072701 13.15413333 -76.97791681 13.14730129 -80.10522461 13.13354492 C-96.96524001 13.06048528 -113.65122876 13.05329178 -130.39208984 15.33935547 C-132.10875854 15.55047974 -132.10875854 15.55047974 -133.86010742 15.76586914 C-155.4618148 18.52126663 -177.57442769 22.79434309 -198.09912109 30.18701172 C-201.00464892 31.20377412 -203.9132886 32.05151588 -206.8840332 32.85253906 C-257.1370413 46.59956255 -319.74614653 73.51863946 -361.37332153 104.82958984 C-369.03385825 110.2102943 -376.43972476 110.22342698 -385.45458984 110.22216797 C-387.03011848 110.24430319 -388.60560779 110.26940824 -390.18104553 110.29727173 C-393.51972482 110.35210733 -396.85802432 110.39095043 -400.197052 110.41687012 C-408.07418177 110.48130377 -415.94948553 110.64536415 -423.82509041 110.80848694 C-425.57717242 110.84472584 -427.32927221 110.88011444 -429.08138847 110.91465759 C-495.33999849 112.23290695 -564.82048424 120.813138 -628.39208984 140.33935547 C-629.60058594 140.70367676 -630.80908203 141.06799805 -632.05419922 141.44335938 C-683.08231053 156.84038204 -735.75851628 176.70634374 -780.39208984 206.33935547 C-780.72208984 205.67935547 -781.05208984 205.01935547 -781.39208984 204.33935547 C-740.99131922 162.59189249 -684.7643186 136.32267988 -629.39208984 121.33935547 C-628.31765625 121.04319336 -627.24322266 120.74703125 -626.13623047 120.44189453 C-577.93676052 107.16826296 -529.18267739 99.63004675 -479.39208984 95.33935547 C-478.31636719 95.24412598 -477.24064453 95.14889648 -476.13232422 95.05078125 C-472.92841328 94.77446142 -469.72365378 94.5204161 -466.51708984 94.27685547 C-465.40277588 94.18936035 -464.28846191 94.10186523 -463.14038086 94.01171875 C-455.57226957 93.4910207 -448.04685685 93.29927756 -440.46018982 93.27658081 C-403.64453965 94.04361571 -403.64453965 94.04361571 -370.88720703 79.61865234 C-364.16606031 75.05799903 -356.63878256 71.71689854 -349.36434937 68.14489746 C-346.59255527 66.78322487 -343.82729402 65.40902985 -341.06323242 64.03173828 C-307.73652154 47.46398897 -272.73079839 31.06836533 -236.72021484 21.28466797 C-233.39100879 20.33904841 -230.15709312 19.23590313 -226.89208984 18.08935547 C-198.35381454 8.48796885 -168.28149648 1.80306293 -138.39208984 -1.66064453 C-137.30831055 -1.79599609 -136.22453125 -1.93134766 -135.10791016 -2.07080078 C-90.49989057 -7.51648698 -44.47115897 -5.92589174 0 0 Z " fill="#22272E" transform="translate(932.39208984375,537.66064453125)"/>
<path d="M0 0 C0 0.33 0 0.66 0 1 C-4.85427055 2.15083196 -9.74043111 2.43078844 -14.69921875 2.81640625 C-29.70459002 4.05592924 -44.6390712 5.87906559 -59.58599854 7.67095947 C-63.27905846 8.11306569 -66.97254187 8.551601 -70.66601562 8.99023438 C-75.02365108 9.50784446 -79.38126517 10.0256234 -83.73867798 10.54510498 C-92.10881637 11.54239331 -100.48084932 12.5214568 -108.85546875 13.48046875 C-123.01504098 15.10515712 -137.1665255 16.79611379 -151.31586933 18.50733471 C-155.29263001 18.98828224 -159.26957395 19.4675542 -163.24707031 19.94238281 C-181.67087406 22.14281706 -200.05618866 24.49093275 -218.4017334 27.27609253 C-227.62934302 28.67364913 -236.86421154 29.90969815 -246.125 31.0625 C-256.19419149 32.33070114 -266.20383116 33.78060516 -276.20410156 35.51123047 C-282.03656704 36.51812874 -287.87112447 37.42464759 -293.73266602 38.24487305 C-324.92464863 42.63855376 -355.897783 48.74603671 -386.8125 54.75 C-387.73688873 54.92832367 -388.66127747 55.10664734 -389.61367798 55.29037476 C-397.71402556 56.8571094 -405.79850864 58.4335869 -413.81005859 60.41210938 C-415.2416053 60.76526215 -415.2416053 60.76526215 -416.70207214 61.12554932 C-418.52817192 61.58218087 -420.3518685 62.04857271 -422.17256165 62.52630615 C-428.46460128 64.11054476 -432.36920828 64.11612264 -438.15234375 60.92578125 C-439.30476563 60.29990112 -439.30476563 60.29990112 -440.48046875 59.66137695 C-441.29128906 59.21624756 -442.10210938 58.77111816 -442.9375 58.3125 C-482.89705994 37.01607668 -527.74926482 32.02746902 -572 41 C-573.03962891 41.20898926 -574.07925781 41.41797852 -575.15039062 41.63330078 C-595.278335 45.80319615 -614.81229121 52.26854372 -633.40844727 61.05639648 C-634.91516146 61.75784437 -636.45511244 62.38718746 -638 63 C-638.66 62.67 -639.32 62.34 -640 62 C-612.52569598 32.22195 -569.97950272 13.51917763 -529.73388672 11.79296875 C-505.493199 10.96814477 -482.04661226 12.30844832 -458.80078125 19.69921875 C-448.18776801 22.83639876 -436.44158357 20.85250444 -425.62011719 19.78442383 C-418.10300843 19.05498873 -410.59902835 18.62207294 -403.05249023 18.34204102 C-402.24368408 18.31037842 -401.43487793 18.27871582 -400.6015625 18.24609375 C-399.55476318 18.21020142 -399.55476318 18.21020142 -398.48681641 18.17358398 C-396.53558891 18.03738501 -394.59105334 17.80490401 -392.65356445 17.53662109 C-386.11448323 16.69608611 -379.52178969 16.49258039 -372.94140625 16.16796875 C-371.42583762 16.09091826 -369.91028418 16.01356868 -368.39474487 15.9359436 C-365.14840337 15.77013922 -361.9019832 15.60601623 -358.65548706 15.44326782 C-350.86344006 15.05252671 -343.07180575 14.65370162 -335.28019142 14.2544384 C-333.48739952 14.16257711 -331.69460239 14.0708179 -329.90180016 13.9791584 C-316.81567465 13.30962928 -303.73147003 12.61022003 -290.6484375 11.8828125 C-289.42410539 11.8148733 -289.42410539 11.8148733 -288.17503929 11.7455616 C-281.08991995 11.35234002 -274.00484178 10.95841644 -266.92019653 10.55673218 C-262.61230687 10.31254042 -258.30429081 10.07074016 -253.99609375 9.83203125 C-252.97321227 9.77534429 -252.97321227 9.77534429 -251.92966652 9.71751213 C-241.1184753 9.123366 -230.30561132 8.67282567 -219.48277283 8.35102844 C-212.83260602 8.14446768 -206.21936386 7.74347515 -199.58482361 7.24708557 C-193.43170427 6.82297907 -187.27198253 6.59155872 -181.109375 6.3515625 C-179.67204154 6.29408457 -178.23471467 6.23644183 -176.7973938 6.1786499 C-172.92292461 6.02353166 -169.04834407 5.8713868 -165.17372894 5.71996307 C-162.73251138 5.62431479 -160.29133015 5.52778664 -157.85015869 5.43096924 C-127.42037339 4.22444645 -96.98761973 3.0995268 -66.55371094 2.00244141 C-64.08376064 1.91333023 -61.61381087 1.82420411 -59.14386177 1.73505974 C-57.55396363 1.67771619 -55.9640627 1.6204501 -54.37415886 1.56326485 C-43.48517588 1.17130242 -32.59732997 0.75851757 -21.71127319 0.29098511 C-14.47004956 -0.01177173 -7.24802688 -0.11669453 0 0 Z " fill="#22272E" transform="translate(976,682)"/>
<path d="M0 0 C2.26118977 0.00052201 4.52238 -0.00000878 6.78356934 -0.00151062 C11.48940955 -0.00142186 16.19507509 0.00879448 20.90087891 0.02709961 C26.79409345 0.04957625 32.68705208 0.0501671 38.58029747 0.04385185 C75.09967963 0.01420686 111.54440748 0.73630611 147.90625 4.36328125 C149.66527992 4.53083908 151.42439585 4.69749636 153.18359375 4.86328125 C158.30095434 5.34872491 163.41625033 5.85363948 168.53125 6.36328125 C170.24251244 6.53288344 171.95377547 6.70247978 173.66503906 6.87207031 C177.83673435 7.28648472 182.00798794 7.70514807 186.17901611 8.1262207 C188.41786874 8.35185457 190.65692137 8.57541105 192.89599609 8.79882812 C213.46712357 10.86490572 233.81130173 13.65973749 254.17150879 17.25114441 C258.83686942 18.07363289 263.50696359 18.85672269 268.18359375 19.61328125 C284.42780275 22.26544133 300.37015742 25.70964344 316.35449219 29.59814453 C319.01593303 30.23916479 321.6796949 30.85750423 324.3515625 31.453125 C355.18712002 38.33357754 385.53969763 48.86676102 414.53125 61.36328125 C411.12932387 62.49725663 410.29551471 62.22241609 406.96484375 61.2109375 C406.02189453 60.9329834 405.07894531 60.6550293 404.10742188 60.36865234 C403.07166016 60.05750488 402.03589844 59.74635742 400.96875 59.42578125 C373.78549274 51.54616902 345.92149693 45.19648341 317.96044922 40.82373047 C315.53125 40.36328125 315.53125 40.36328125 313.53125 39.36328125 C312.17266311 39.1222008 310.80625167 38.92434726 309.4375 38.75 C308.58784668 38.63865723 307.73819336 38.52731445 306.86279297 38.41259766 C305.92838379 38.29319824 304.99397461 38.17379883 304.03125 38.05078125 C298.04409073 37.27026899 292.06769602 36.48046472 286.1171875 35.453125 C265.12215737 31.87062511 243.91851522 30.1502628 222.72119141 28.2177887 C217.03252397 27.69745631 211.34983588 27.14171468 205.66918945 26.54042053 C195.69772023 25.49247104 185.74209679 24.84935025 175.72607422 24.4128418 C173.19079188 24.30228749 170.65596176 24.18409654 168.12109375 24.06445312 C163.59988458 23.85473604 159.07806945 23.66544572 154.55560303 23.48498535 C152.48733974 23.40175561 150.41918599 23.31577046 148.35113525 23.22741699 C124.95205038 22.2404684 101.57203232 22.20170404 78.15625 22.23828125 C76.15269979 22.24085974 74.14914958 22.24343335 72.14559937 22.2460022 C59.71557576 22.26372514 47.28570572 22.30216722 34.85578156 22.35411835 C31.61138105 22.36690721 28.36696991 22.37566338 25.12255859 22.38525391 C-3.39043253 22.49731944 -31.82348765 24.1601962 -60.28125 25.80078125 C-61.23581966 25.85564571 -62.19038933 25.91051018 -63.17388535 25.9670372 C-68.74032878 26.28781183 -74.30631631 26.61533956 -79.87183762 26.95174408 C-81.57898614 27.05459338 -83.28621079 27.15618889 -84.99351883 27.25635529 C-94.62734768 27.82433175 -104.20799175 28.59719594 -113.80151653 29.64928818 C-120.12291958 30.34114024 -126.44469565 30.84794728 -132.7890625 31.28125 C-147.35384338 32.34628561 -161.84088927 33.98006983 -176.34375 35.67578125 C-177.68880571 35.83182958 -179.03387833 35.98773213 -180.37896729 36.14349365 C-208.60789147 39.41580666 -236.73758861 43.08239564 -264.75732422 47.84033203 C-265.9485791 48.03997559 -267.13983398 48.23961914 -268.3671875 48.4453125 C-269.92445557 48.71178589 -269.92445557 48.71178589 -271.51318359 48.98364258 C-274.53182309 49.37138291 -277.42881946 49.42988424 -280.46875 49.36328125 C-277.35388035 47.28670148 -275.05572574 46.57619751 -271.45703125 45.62890625 C-270.23669189 45.30519043 -269.01635254 44.98147461 -267.7590332 44.64794922 C-266.4331888 44.3027397 -265.10725892 43.95785832 -263.78125 43.61328125 C-262.41423747 43.25433232 -261.04729479 42.8951173 -259.68041992 42.53564453 C-255.61232365 41.46861762 -251.54090177 40.41470604 -247.46875 39.36328125 C-246.37046875 39.0787207 -245.2721875 38.79416016 -244.140625 38.50097656 C-229.38057718 34.69269499 -214.53818389 31.32190526 -199.64697266 28.06884766 C-195.36934405 27.11921279 -191.10343269 26.12146237 -186.83862305 25.1159668 C-179.17931227 23.40520427 -171.46537087 21.96951422 -163.74609375 20.55859375 C-162.85093048 20.39456558 -161.95576721 20.23053741 -161.03347778 20.0615387 C-158.15801495 19.53557203 -155.28220887 19.01152856 -152.40625 18.48828125 C-151.42276581 18.30931305 -150.43928162 18.13034485 -149.42599487 17.94595337 C-134.46757945 15.22866506 -119.50565569 12.61329819 -104.46875 10.36328125 C-103.22134033 10.17306396 -103.22134033 10.17306396 -101.94873047 9.97900391 C-87.19410209 7.73695009 -72.37835227 5.9196124 -57.55439472 4.20166302 C-53.28499226 3.70638635 -49.02204657 3.17631184 -44.76066589 2.61604309 C-29.77410255 0.69715933 -15.09798404 -0.07123514 0 0 Z " fill="#1F242C" transform="translate(887.46875,136.63671875)"/>
<path d="M0 0 C1.38092016 -0.00132557 1.38092016 -0.00132557 2.7897377 -0.00267792 C26.07992748 -0.02249265 49.31279037 0.10846192 72.5625 1.625 C73.55977112 1.68812378 74.55704224 1.75124756 75.58453369 1.81628418 C78.30127798 1.99477438 81.01582395 2.19064458 83.73046875 2.3984375 C84.50846329 2.45375641 85.28645782 2.50907532 86.08802795 2.56607056 C87.85843851 2.71905963 89.61967471 2.97324681 91.375 3.25 C91.705 3.91 92.035 4.57 92.375 5.25 C91.59713135 5.3001123 90.8192627 5.35022461 90.01782227 5.40185547 C86.32425265 5.6409548 82.63082374 5.88213685 78.9375 6.125 C78.25619019 6.16979492 77.57488037 6.21458984 76.8729248 6.26074219 C67.95032862 6.85004417 59.0358762 7.50198508 50.125 8.25 C41.43090886 8.97497232 32.73711867 9.53154313 24.02609253 10.00964355 C-18.54389609 12.36085495 -61.01920137 16.44715474 -103.48579407 20.18386841 C-110.88179993 20.83456956 -118.27813895 21.4810961 -125.67524719 22.11917114 C-145.51923948 23.83155009 -165.33241326 25.68892262 -185.12866211 27.88891602 C-194.19645556 28.8949784 -203.26499621 29.7852664 -212.3581543 30.53173828 C-220.94910757 31.24784779 -229.51539627 32.16775735 -238.08422852 33.10961914 C-252.53016965 34.69555685 -266.99281228 36.10199465 -281.4609375 37.46875 C-283.70182311 37.68098754 -285.94270853 37.89322714 -288.18359375 38.10546875 C-291.60580656 38.4295438 -295.02809892 38.75262819 -298.45068359 39.07275391 C-315.25785075 40.61389012 -315.25785075 40.61389012 -331.97509766 42.90039062 C-334.55992666 43.24141468 -337.02132873 43.31406847 -339.625 43.25 C-337.26036648 40.88536648 -336.13985184 40.76626975 -332.90356445 40.15209961 C-331.92058884 39.96104141 -330.93761322 39.76998322 -329.92485046 39.57313538 C-328.85265762 39.37239914 -327.78046478 39.1716629 -326.67578125 38.96484375 C-324.38091646 38.52121688 -322.08616077 38.07702532 -319.79150391 37.63232422 C-318.60381409 37.40438171 -317.41612427 37.17643921 -316.19244385 36.94158936 C-310.59286301 35.85604725 -305.00605155 34.70938847 -299.41796875 33.56640625 C-273.55570404 28.31102527 -247.71575366 23.22914878 -221.625 19.25 C-220.63050842 19.09766907 -219.63601685 18.94533813 -218.61138916 18.78839111 C-119.57708515 3.63185301 -119.57708515 3.63185301 -78.59375 2.42578125 C-74.68271839 2.31131159 -74.68271839 2.31131159 -71.06201172 1.77319336 C-47.74887753 -1.21113544 -23.46876259 0.01031789 0 0 Z " fill="#252A31" transform="translate(1148.625,703.75)"/>
<path d="M0 0 C-7.64412917 7.72632411 -15.7256017 14.84367541 -24.19140625 21.65234375 C-26.66900728 23.72332875 -29.03564051 25.87163692 -31.38110352 28.09008789 C-35.88466633 32.3404679 -40.48576037 36.35933795 -45.5 40 C-46.4590625 40.70125 -47.418125 41.4025 -48.40625 42.125 C-56.18140304 46.7605926 -66.28631119 47.55420217 -75.125 48.5 C-76.21594971 48.62036621 -77.30689941 48.74073242 -78.4309082 48.86474609 C-93.54106284 50.4102505 -108.72289389 51.15821848 -123.88525391 51.99804688 C-124.95279404 52.05773651 -126.02033417 52.11742615 -127.120224 52.17892456 C-129.13338882 52.29066774 -131.14669945 52.39982661 -133.16017151 52.50588989 C-137.25039425 52.73149862 -141.30192073 53.00058462 -145.36450195 53.53442383 C-148.28063635 53.90787546 -151.00700262 54.11800693 -153.9375 54.09765625 C-154.76894531 54.09443359 -155.60039062 54.09121094 -156.45703125 54.08789062 C-157.71580078 54.07532227 -157.71580078 54.07532227 -159 54.0625 C-159.87011719 54.05798828 -160.74023438 54.05347656 -161.63671875 54.04882812 C-163.75784293 54.0371736 -165.8789311 54.01924357 -168 54 C-165.06501338 50.89420859 -161.71687739 48.97944378 -158 46.9375 C-157.28779297 46.5446582 -156.57558594 46.15181641 -155.84179688 45.74707031 C-154.3230917 44.91250817 -152.8028664 44.08070723 -151.28125 43.25146484 C-149.12411299 42.06808681 -146.98358506 40.85882685 -144.84375 39.64453125 C-107.98802137 19.10628394 -67.06750015 8.66090456 -25.6875 2.0625 C-25.02372345 1.95468201 -24.3599469 1.84686401 -23.67605591 1.73577881 C-15.72598312 0.45863976 -8.05421209 -0.30901705 0 0 Z " fill="#0C3599" transform="translate(349,696)"/>
<path d="M0 0 C7.09026374 21.08135669 8.30251236 40.09136887 5 62 C1.69463151 60.56821909 -1.01679589 58.54928437 -3.86914062 56.37084961 C-18.97950298 44.85567082 -35.43347082 37.10313546 -53 30 C-53.78197754 29.68321289 -54.56395508 29.36642578 -55.36962891 29.04003906 C-70.74253692 22.95330391 -86.91889236 19.15368971 -102.90234375 15.0390625 C-103.64426971 14.84772736 -104.38619568 14.65639221 -105.15060425 14.45925903 C-108.75141386 13.54006842 -112.3465147 12.68265196 -116 12 C-116 11.34 -116 10.68 -116 10 C-114.32828735 9.87153687 -114.32828735 9.87153687 -112.62280273 9.74047852 C-108.46474565 9.42034434 -104.30692621 9.09720874 -100.14916992 8.77319336 C-98.35398541 8.63370977 -96.55873853 8.49502639 -94.76342773 8.35717773 C-92.17414575 8.1582232 -89.5851061 7.95633584 -86.99609375 7.75390625 C-85.80348183 7.66321617 -85.80348183 7.66321617 -84.58677673 7.57069397 C-81.18079542 7.30195209 -77.83176214 6.97537447 -74.44897461 6.48022461 C-70.57494313 5.94081639 -66.72307533 5.73362654 -62.8203125 5.5625 C-52.79882391 5.06183542 -42.8502556 4.06070856 -32.875 3 C-31.14587242 2.81993671 -29.4167058 2.64024806 -27.6875 2.4609375 C-18.6732553 1.52822982 -18.6732553 1.52822982 -9.67626953 0.4453125 C-6.40142285 0.048625 -3.29313568 -0.08232839 0 0 Z " fill="#ae7c54" transform="translate(1380,664)"/>
<path d="M0 0 C4.67726589 -0.09968761 9.35389875 -0.17184934 14.03198242 -0.21972656 C15.61965726 -0.23970745 17.20725979 -0.26690203 18.79467773 -0.30175781 C37.62341536 -0.70451156 37.62341536 -0.70451156 45.5 6.1875 C47.99314057 10.86213857 48.70463815 15.18608319 47.40625 20.37109375 C44.78211132 27.07848269 40.554849 31.33602813 34.0625 34.375 C33.381875 34.58125 32.70125 34.7875 32 35 C33.80234261 39.80333054 36.23717686 44.11787967 38.7578125 48.57421875 C40 51 40 51 40 53 C35.71 53 31.42 53 27 53 C25.66161267 50.54429825 24.32913768 48.08570084 23 45.625 C22.42765625 44.57699219 22.42765625 44.57699219 21.84375 43.5078125 C19 38.2265625 19 38.2265625 19 36 C14.05 36.33 9.1 36.66 4 37 C2.68 42.28 1.36 47.56 0 53 C-3.96 53 -7.92 53 -12 53 C-11.79246094 52.071875 -11.58492188 51.14375 -11.37109375 50.1875 C-11.05974061 48.79170128 -10.74856072 47.39586391 -10.4375 46 C-10.26694092 45.23486084 -10.09638184 44.46972168 -9.9206543 43.68139648 C-8.66948101 38.0524586 -7.43621922 32.41977265 -6.2109375 26.78515625 C-5.89527458 25.33528408 -5.57960069 23.88541431 -5.26391602 22.43554688 C-4.78813543 20.25013272 -4.31295402 18.06459653 -3.83956909 15.87866211 C-3.39058461 13.80550993 -2.93960269 11.73280074 -2.48828125 9.66015625 C-2.22571533 8.44980713 -1.96314941 7.23945801 -1.69262695 5.99243164 C-1 3 -1 3 0 0 Z " fill="#0B50C1" transform="translate(433,801)"/>
<path d="M0 0 C3.59238888 0.04005087 5.26103072 0.14261253 7.97412109 2.55615234 C9.88027033 5.24981864 11.49610216 7.9887914 13.07421875 10.88671875 C13.90083008 12.29727539 13.90083008 12.29727539 14.74414062 13.73632812 C16.48359401 16.70932204 18.1846213 19.7046812 19.88671875 22.69921875 C22.52671875 26.98921875 25.16671875 31.27921875 27.88671875 35.69921875 C30.85671875 24.14921875 33.82671875 12.59921875 36.88671875 0.69921875 C40.51671875 0.69921875 44.14671875 0.69921875 47.88671875 0.69921875 C47.36237667 9.71422302 45.25022548 18.20247297 43.07592773 26.93212891 C42.44762496 29.45562 41.82943479 31.98142548 41.21289062 34.5078125 C40.81438565 36.1290498 40.41531676 37.75014862 40.015625 39.37109375 C39.83222061 40.11808533 39.64881622 40.8650769 39.45985413 41.63470459 C38.43836503 45.72531562 37.27979799 49.71495721 35.88671875 53.69921875 C32.05450487 54.33654533 28.7004588 54.52823683 24.88671875 53.69921875 C21.63040012 50.81392125 19.76642306 47.30475981 17.69921875 43.51171875 C17.11188965 42.51188965 16.52456055 41.51206055 15.91943359 40.48193359 C14.75094554 38.48870625 13.59818528 36.48616401 12.46240234 34.47412109 C10.41035731 30.86030891 8.22045501 27.34335243 6.01171875 23.82421875 C4.96818958 22.11702249 3.92563054 20.40922884 2.88671875 18.69921875 C0.55388808 22.597638 -0.13483801 26.80969843 -1.05078125 31.19921875 C-1.39859877 32.81274634 -1.74756153 34.42602747 -2.09765625 36.0390625 C-2.26845703 36.82909668 -2.43925781 37.61913086 -2.61523438 38.43310547 C-5.64849252 52.23443002 -5.64849252 52.23443002 -7.11328125 53.69921875 C-10.7798332 53.84222 -14.44472344 53.74138608 -18.11328125 53.69921875 C-16.20391847 42.73690789 -13.82886356 31.9521866 -11.09667969 21.16625977 C-10.47603282 18.71330993 -9.8645592 16.25818927 -9.25390625 13.80273438 C-8.86120486 12.23814869 -8.46799598 10.67369026 -8.07421875 9.109375 C-7.89192719 8.3772731 -7.70963562 7.6451712 -7.52182007 6.8908844 C-6.09167201 1.2767314 -5.80682257 0.49384988 0 0 Z " fill="#0C52C4" transform="translate(707.11328125,800.30078125)"/>
<path d="M0 0 C1.70542969 0.15662109 1.70542969 0.15662109 3.4453125 0.31640625 C5.17394531 0.43822266 5.17394531 0.43822266 6.9375 0.5625 C7.80632813 0.66691406 8.67515625 0.77132812 9.5703125 0.87890625 C12.33230021 7.61586142 13.94990911 14.40218161 15.5078125 21.50390625 C17.37600427 29.85125779 19.33541918 38.08032218 21.90625 46.2421875 C22.5703125 48.87890625 22.5703125 48.87890625 22.5703125 53.87890625 C18.6103125 53.87890625 14.6503125 53.87890625 10.5703125 53.87890625 C9.9103125 49.91890625 9.2503125 45.95890625 8.5703125 41.87890625 C-1.3296875 41.87890625 -11.2296875 41.87890625 -21.4296875 41.87890625 C-22.4196875 44.35390625 -22.4196875 44.35390625 -23.4296875 46.87890625 C-24.65369459 49.84985303 -25.79662934 51.96885996 -28.4296875 53.87890625 C-32.82012176 54.4863207 -37.02611806 54.28509201 -41.4296875 53.87890625 C-40.09527379 51.05140661 -38.59199399 48.58280057 -36.734375 46.0703125 C-35.91936523 44.96502197 -35.91936523 44.96502197 -35.08789062 43.83740234 C-34.20520508 42.65138428 -34.20520508 42.65138428 -33.3046875 41.44140625 C-32.69302734 40.61463379 -32.08136719 39.78786133 -31.45117188 38.93603516 C-26.02375991 31.62326843 -20.50383047 24.38119966 -14.93701172 17.17407227 C-14.30553223 16.35221436 -13.67405273 15.53035645 -13.0234375 14.68359375 C-12.41258301 13.89106201 -11.80172852 13.09853027 -11.17236328 12.28198242 C-9.41741171 9.86197845 -7.9191391 7.36398191 -6.390625 4.796875 C-3.90220938 0.99999671 -3.90220938 0.99999671 0 0 Z " fill="#0C52C3" transform="translate(994.4296875,800.12109375)"/>
<path d="M0 0 C14.85 0 29.7 0 45 0 C44.34 2.97 43.68 5.94 43 9 C26.665 9.495 26.665 9.495 10 10 C9.01 13.96 8.02 17.92 7 22 C16.57 22 26.14 22 36 22 C35 29 35 29 34 30 C31.78144736 30.08783542 29.56011504 30.10694609 27.33984375 30.09765625 C26.34314415 30.09553383 26.34314415 30.09553383 25.3263092 30.09336853 C23.19666101 30.08775518 21.06711661 30.07520054 18.9375 30.0625 C17.49674631 30.05748671 16.05599097 30.05292351 14.61523438 30.04882812 C11.07675042 30.03863076 7.53849187 30.0190583 4 30 C3.34 34.29 2.68 38.58 2 43 C12.89 43 23.78 43 35 43 C34 51 34 51 33 53 C17.82 53 2.64 53 -13 53 C-11.27062707 45.21782183 -9.48029632 37.4549172 -7.64013672 29.69873047 C-7.1748173 27.73700627 -6.71042164 25.7750629 -6.24658203 23.81298828 C-5.43794004 20.39550738 -4.62560815 16.97892078 -3.8125 13.5625 C-3.55049805 12.45390625 -3.28849609 11.3453125 -3.01855469 10.203125 C-2.77137695 9.16800781 -2.52419922 8.13289062 -2.26953125 7.06640625 C-1.93852417 5.6733728 -1.93852417 5.6733728 -1.60083008 4.25219727 C-1 2 -1 2 0 0 Z " fill="#0E51C3" transform="translate(569,801)"/>
<path d="M0 0 C-0.33 2.97 -0.66 5.94 -1 9 C-35.9745373 9.21167428 -70.88777542 8.68416787 -105.8470459 7.66760254 C-110.7698853 7.52596295 -115.69288999 7.39065546 -120.61591339 7.25558567 C-126.6294179 7.09046289 -132.64284433 6.92258648 -138.65625 6.75390625 C-140.29268211 6.70807498 -140.29268211 6.70807498 -141.96217346 6.66131783 C-158.31178732 6.19985496 -174.65597313 5.62841258 -191 5 C-191 4.67 -191 4.34 -191 4 C-158.53693515 2.4831711 -126.06638291 1.62798404 -93.57672119 0.94179535 C-90.48951252 0.87610671 -87.40234652 0.80867344 -84.31518555 0.74078369 C-56.20650508 0.12644262 -28.11521344 -0.12220911 0 0 Z " fill="#1451BE" transform="translate(365,821)"/>
<path d="M0 0 C18.14091368 -0.05384127 36.26829775 0.07211896 54.40625 0.40234375 C56.83589399 0.44494994 59.26554088 0.48739068 61.69519043 0.52967834 C66.74376277 0.61808166 71.79230135 0.70816085 76.84082031 0.79956055 C83.1959857 0.91452521 89.55121104 1.02566196 95.90646362 1.13568687 C118.19945478 1.52258587 140.49257517 1.91298248 162.78125 2.50390625 C163.84437157 2.53068105 163.84437157 2.53068105 164.92897034 2.55799675 C173.64695234 2.78091091 182.311751 3.24242539 191 4 C191 4.33 191 4.66 191 5 C155.40904777 6.40564939 119.81518906 7.33385836 84.20444107 8.05820465 C80.97590271 8.12421482 77.74739459 8.19155855 74.51889038 8.25921631 C49.34283816 8.78410276 24.18190229 9.14813937 -1 9 C-0.67 6.03 -0.34 3.06 0 0 Z " fill="#0F50BE" transform="translate(1208,821)"/>
<path d="M0 0 C1.35568336 0.00333092 1.35568336 0.00333092 2.73875427 0.00672913 C3.75973709 0.00680466 4.78071991 0.00688019 5.8326416 0.00695801 C6.94304306 0.01211929 8.05344452 0.01728058 9.19749451 0.02259827 C10.89336952 0.02472069 10.89336952 0.02472069 12.62350464 0.02688599 C16.25105891 0.03250433 19.8785525 0.04505994 23.50608826 0.05775452 C25.95856133 0.06276715 28.41103536 0.06733047 30.86351013 0.07142639 C36.89022371 0.08247971 42.91690165 0.09923568 48.94358826 0.12025452 C48.28358826 3.09025452 47.62358826 6.06025452 46.94358826 9.12025452 C37.04358826 9.61525452 37.04358826 9.61525452 26.94358826 10.12025452 C26.23331482 13.14052795 25.52304138 16.16080139 24.79124451 19.27259827 C24.10371368 22.18515699 23.41494749 25.09742096 22.72605896 28.00965881 C22.24657355 30.03962673 21.76838057 32.06990037 21.29148865 34.10047913 C20.60727546 37.01282581 19.91847857 39.92405486 19.22874451 42.83509827 C18.90837975 44.20540443 18.90837975 44.20540443 18.58154297 45.60339355 C18.38141098 46.44418961 18.18127899 47.28498566 17.9750824 48.15126038 C17.79965408 48.89516525 17.62422577 49.63907013 17.44348145 50.40551758 C16.94358826 52.12025452 16.94358826 52.12025452 15.94358826 53.12025452 C13.92394627 53.19269505 11.90191702 53.2040264 9.88108826 53.18275452 C8.22399841 53.16921936 8.22399841 53.16921936 6.53343201 53.15541077 C5.67878357 53.1438092 4.82413513 53.13220764 3.94358826 53.12025452 C6.34822382 41.75532891 9.08142838 30.55177817 12.32102966 19.39515686 C13.25406118 15.98574992 14.08628045 12.54948575 14.94358826 9.12025452 C8.67358826 9.12025452 2.40358826 9.12025452 -4.05641174 9.12025452 C-2.93785485 0.17179941 -2.93785485 0.17179941 0 0 Z " fill="#0E51C2" transform="translate(843.0564117431641,800.8797454833984)"/>
<path d="M0 0 C3.96 0 7.92 0 12 0 C11.30984732 5.32403498 10.30566428 10.51425306 9.125 15.75 C8.94864014 16.53987305 8.77228027 17.32974609 8.59057617 18.14355469 C7.41263623 23.35398101 6.1132544 28.51222518 4.61328125 33.640625 C3.89934613 36.38722889 3.46654383 39.20073703 3 42 C17.85 42.495 17.85 42.495 33 43 C32.34 46.3 31.68 49.6 31 53 C16.81 53 2.62 53 -12 53 C-8.55218405 34.61164825 -8.55218405 34.61164825 -6.73828125 27.34375 C-6.54276169 26.5451355 -6.34724213 25.746521 -6.14579773 24.92370605 C-5.5387552 22.44811812 -4.92578575 19.97404771 -4.3125 17.5 C-3.89217792 15.79046293 -3.47225399 14.08082792 -3.05273438 12.37109375 C-2.03972189 8.2462574 -1.02140317 4.12276626 0 0 Z " fill="#0F51C2" transform="translate(1109,801)"/>
<path d="M0 0 C0.9075 -0.02900391 1.815 -0.05800781 2.75 -0.08789062 C7.0242665 -0.12850865 9.58033739 -0.07040532 13.3515625 2.0859375 C15.64925857 4.78076623 15.96500957 6.82837822 15.7421875 10.34765625 C14.74196677 14.3406009 11.76814668 16.39802582 8.38964844 18.43310547 C5.86189634 19.47201043 3.99293845 19.54107242 1.265625 19.5078125 C0.33105469 19.50136719 -0.60351562 19.49492188 -1.56640625 19.48828125 C-2.53449219 19.47152344 -3.50257813 19.45476563 -4.5 19.4375 C-5.48355469 19.42847656 -6.46710938 19.41945313 -7.48046875 19.41015625 C-9.90389407 19.38662785 -12.32682222 19.35375368 -14.75 19.3125 C-14.10861776 16.33230994 -13.4621269 13.35339324 -12.8125 10.375 C-12.63009766 9.52486328 -12.44769531 8.67472656 -12.25976562 7.79882812 C-12.08251953 6.98994141 -11.90527344 6.18105469 -11.72265625 5.34765625 C-11.47914429 4.22435913 -11.47914429 4.22435913 -11.23071289 3.07836914 C-9.97251644 -1.54353789 -3.95107405 0.04138695 0 0 Z " fill="#EDF2F9" transform="translate(452.75,809.6875)"/>
<path d="M0 0 C36.96 0 73.92 0 112 0 C111.67 0.99 111.34 1.98 111 3 C74.37 3 37.74 3 0 3 C0 2.01 0 1.02 0 0 Z " fill="#373D44" transform="translate(790,237)"/>
<path d="M0 0 C1.58868158 3.08477884 2.69596898 6.02485785 3.625 9.375 C4.01558594 10.74785156 4.01558594 10.74785156 4.4140625 12.1484375 C5 15 5 15 5 21 C-1.27 21 -7.54 21 -14 21 C-12.48778023 17.21945057 -11.52573562 15.08154767 -9.1796875 12.01171875 C-8.64472656 11.30595703 -8.10976563 10.60019531 -7.55859375 9.87304688 C-7.00300781 9.15181641 -6.44742188 8.43058594 -5.875 7.6875 C-5.31167969 6.94693359 -4.74835937 6.20636719 -4.16796875 5.44335938 C-2.78365711 3.62498391 -1.39425774 1.81075326 0 0 Z " fill="#F1F5FB" transform="translate(995,812)"/>
<path d="M0 0 C1.19568604 0.00265869 2.39137207 0.00531738 3.62329102 0.00805664 C13.98116219 0.06016591 24.33345199 0.28485764 34.6875 0.5625 C35.82245911 0.59183624 35.82245911 0.59183624 36.98034668 0.62176514 C46.2641942 0.8673255 55.49519418 1.3043421 64.75 2.125 C64.75 2.455 64.75 2.785 64.75 3.125 C36.71325217 4.49477874 8.78674783 4.49477874 -19.25 3.125 C-19.58 2.465 -19.91 1.805 -20.25 1.125 C-13.47336163 0.09377242 -6.8479791 -0.02787907 0 0 Z " fill="#235AC5" transform="translate(1334.25,822.875)"/>
<path d="M0 0 C0 0.33 0 0.66 0 1 C-3.32521325 1.71500795 -6.56732564 2.19781169 -9.95703125 2.46484375 C-10.89732178 2.5417041 -11.8376123 2.61856445 -12.80639648 2.69775391 C-13.79841064 2.77687012 -14.7904248 2.85598633 -15.8125 2.9375 C-24.08992026 3.61983758 -32.30411192 4.46956969 -40.52734375 5.6328125 C-45.68519742 6.17818735 -50.86088512 6.35651915 -56 5.5 C-57.485 5.2525 -57.485 5.2525 -59 5 C-59 4.67 -59 4.34 -59 4 C-61.64 3.67 -64.28 3.34 -67 3 C-67 2.67 -67 2.34 -67 2 C-59.70848026 1.71133263 -52.41680051 1.42699276 -45.125 1.14550781 C-42.65002723 1.04947371 -40.17509117 0.95248833 -37.70019531 0.85449219 C-11.30742646 -0.18928963 -11.30742646 -0.18928963 0 0 Z " fill="#5B5E63" transform="translate(976,682)"/>
<path d="M0 0 C-0.33 1.65 -0.66 3.3 -1 5 C-5.22873934 5.48298592 -9.45806329 5.96066262 -13.6875 6.4375 C-15.45577148 6.63956055 -15.45577148 6.63956055 -17.25976562 6.84570312 C-25.16389181 7.73356387 -33.06560384 8.44466675 -41 9 C-38.53934234 6.53934234 -37.11164585 6.43414092 -33.72265625 5.78125 C-32.65080078 5.57113281 -31.57894531 5.36101563 -30.47460938 5.14453125 C-29.34861328 4.93183594 -28.22261719 4.71914063 -27.0625 4.5 C-25.97130859 4.28730469 -24.88011719 4.07460938 -23.75585938 3.85546875 C-20.50601954 3.22522021 -17.25365579 2.61021524 -14 2 C-12.95569824 1.80148437 -11.91139648 1.60296875 -10.83544922 1.3984375 C-9.85721191 1.21539063 -8.87897461 1.03234375 -7.87109375 0.84375 C-7.00282959 0.68068359 -6.13456543 0.51761719 -5.23999023 0.34960938 C-3 0 -3 0 0 0 Z " fill="#2E333B" transform="translate(850,738)"/>
<path d="M0 0 C30.36 0 60.72 0 92 0 C92 0.33 92 0.66 92 1 C90.33749458 1.00879936 90.33749458 1.00879936 88.6414032 1.01777649 C78.20844739 1.07493061 67.77570148 1.1476537 57.3429594 1.23571491 C51.97906171 1.2804878 46.61524119 1.31972859 41.2512207 1.34643555 C36.07693107 1.37239958 30.90293732 1.41275276 25.72883034 1.46318626 C23.7524667 1.47990179 21.77605182 1.49138679 19.7996273 1.49761391 C17.03626687 1.50720418 14.2736715 1.53520196 11.51049805 1.56762695 C10.68906815 1.56619186 9.86763824 1.56475677 9.02131653 1.5632782 C4.82928164 1.47232231 4.82928164 1.47232231 1.39127827 3.52492046 C0.93215644 4.01169671 0.47303461 4.49847296 0 5 C-0.66 5 -1.32 5 -2 5 C-1.34 3.35 -0.68 1.7 0 0 Z " fill="#292E36" transform="translate(518,239)"/>
<path d="M0 0 C0 0.33 0 0.66 0 1 C-14.31937528 2.73926374 -28.58537604 3.54474291 -43 4 C-43 3.34 -43 2.68 -43 2 C-45.64 2 -48.28 2 -51 2 C-51 1.67 -51 1.34 -51 1 C-33.99129551 0.06337538 -17.03221961 -0.12256108 0 0 Z " fill="#265BBE" transform="translate(863,137)"/>
<path d="M0 0 C0.33 0.66 0.66 1.32 1 2 C-0.06439983 4.51392439 -1.18876827 6.89136351 -2.4375 9.3125 C-2.79859863 10.02438477 -3.15969727 10.73626953 -3.53173828 11.46972656 C-6.52181646 17.27391986 -9.82936897 22.82379033 -13.3359375 28.328125 C-14.69814338 30.5153288 -15.90272336 32.67244349 -17 35 C-17.66 35 -18.32 35 -19 35 C-17.74002942 30.90378079 -16.21969153 27.31607495 -14.1015625 23.59375 C-13.53953125 22.60246094 -12.9775 21.61117188 -12.3984375 20.58984375 C-11.81320312 19.57019531 -11.22796875 18.55054688 -10.625 17.5 C-10.0475 16.48035156 -9.47 15.46070313 -8.875 14.41015625 C-6.07167847 9.48834287 -3.23382124 4.65160494 0 0 Z " fill="#113FAA" transform="translate(804,465)"/>
<path d="M0 0 C6.64168611 2.11644743 13.10461783 4.5673908 19.5625 7.1875 C20.47580078 7.55552734 21.38910156 7.92355469 22.33007812 8.30273438 C24.55436264 9.19943546 26.77763445 10.09855598 29 11 C25.37288657 12.20903781 24.01551336 11.66955128 20.37890625 10.63671875 C19.27869141 10.32669922 18.17847656 10.01667969 17.04492188 9.69726562 C15.32112305 9.19743164 15.32112305 9.19743164 13.5625 8.6875 C12.41716797 8.36587891 11.27183594 8.04425781 10.09179688 7.71289062 C0.81403505 5.06908137 0.81403505 5.06908137 -3 3 C-2.01 3 -1.02 3 0 3 C0 2.01 0 1.02 0 0 Z " fill="#363940" transform="translate(1273,187)"/>
<path d="M0 0 C0.74685059 -0.02126953 1.49370117 -0.04253906 2.26318359 -0.06445312 C7.35632337 -0.09773385 7.35632337 -0.09773385 9.80078125 1.765625 C10.13464844 2.25546875 10.46851563 2.7453125 10.8125 3.25 C-3.53753796 3.44778 -17.8518977 2.84154812 -32.1875 2.25 C-32.1875 1.92 -32.1875 1.59 -32.1875 1.25 C-21.46564727 0.68235474 -10.73690939 0.15175844 0 0 Z " fill="#315FC9" transform="translate(206.1875,823.75)"/>
<path d="M0 0 C6.92810724 5.66574049 13.14204142 12.03033639 19.4375 18.375 C20.56161467 19.50413955 21.68596174 20.63304778 22.81054688 21.76171875 C25.54305235 24.50515188 28.27239009 27.25169985 31 30 C30.34 30.33 29.68 30.66 29 31 C28.29875 30.278125 27.5975 29.55625 26.875 28.8125 C25.02105913 26.94814374 23.18818842 25.34702112 21.125 23.6875 C18.06896024 21.18851053 15.62488041 18.33375526 13.078125 15.328125 C10.06390607 11.95129327 6.82308497 8.81226293 3.5559082 5.68115234 C2.33437034 4.49016895 1.16249317 3.24868163 0 2 C0 1.34 0 0.68 0 0 Z " fill="#1B3A96" transform="translate(1248,552)"/>
<path d="M0 0 C1.89880796 1.07811106 3.79391978 2.16273319 5.6875 3.25 C6.74324219 3.85328125 7.79898437 4.4565625 8.88671875 5.078125 C11.79386323 6.8727487 14.38523131 8.80728117 17 11 C9.51747162 9.62820313 2.94395046 7.07836721 -4 4 C-3.01 3.67 -2.02 3.34 -1 3 C-0.67 2.01 -0.34 1.02 0 0 Z " fill="#2957C7" transform="translate(355,449)"/>
<path d="M0 0 C0 0.66 0 1.32 0 2 C-3.22823979 2.50610903 -6.45772365 3.00379907 -9.6875 3.5 C-10.59951172 3.64308594 -11.51152344 3.78617188 -12.45117188 3.93359375 C-13.78051758 4.13662109 -13.78051758 4.13662109 -15.13671875 4.34375 C-16.35427856 4.53227539 -16.35427856 4.53227539 -17.59643555 4.72460938 C-20.08533405 5.00977723 -22.49706689 5.04674739 -25 5 C-22.31226571 2.31226571 -19.48098789 2.05714324 -15.875 1.375 C-15.20009521 1.24311279 -14.52519043 1.11122559 -13.82983398 0.9753418 C-9.11697748 0.0980961 -4.77257336 -0.29219837 0 0 Z " fill="#494B4F" transform="translate(834,742)"/>
<path d="M0 0 C7.26 0 14.52 0 22 0 C17.93480981 2.03259509 14.8512521 2.45340514 10.4375 2.6875 C9.42913086 2.75807617 9.42913086 2.75807617 8.40039062 2.83007812 C5.25457613 3.02063888 3.02005632 3.00668544 0 2 C0 1.34 0 0.68 0 0 Z " fill="#30333A" transform="translate(930,684)"/>
<path d="M0 0 C0 0.99 0 1.98 0 3 C-7.59 3 -15.18 3 -23 3 C-23 2.67 -23 2.34 -23 2 C-15.26940505 0.64290496 -7.85546636 -0.31918373 0 0 Z " fill="#D6D8D9" transform="translate(473,691)"/>
<path d="M0 0 C0.33 1.32 0.66 2.64 1 4 C-8.405 4.495 -8.405 4.495 -18 5 C-15.24633094 2.24633094 -12.7923872 2.14435724 -9 1.375 C-7.741875 1.11460937 -6.48375 0.85421875 -5.1875 0.5859375 C-2 0 -2 0 0 0 Z " fill="#3E3F44" transform="translate(1057,668)"/>
<path d="M0 0 C3.96 0 7.92 0 12 0 C12 0.33 12 0.66 12 1 C8.7 1.33 5.4 1.66 2 2 C1.896875 2.66 1.79375 3.32 1.6875 4 C0.80786436 7.83841009 -0.56969896 11.33096691 -2 15 C-3.87723804 9.77854321 -1.52111006 5.1109298 0 0 Z " fill="#336DD2" transform="translate(1109,801)"/>
<path d="M0 0 C3.15835107 1.39750048 5.32272825 3.05198234 7.75 5.5 C8.67039062 6.41265625 8.67039062 6.41265625 9.609375 7.34375 C11 9 11 9 11 11 C11.66 11 12.32 11 13 11 C13 11.66 13 12.32 13 13 C10.03 12.505 10.03 12.505 7 12 C6.84724609 11.10667969 6.84724609 11.10667969 6.69140625 10.1953125 C5.88575737 7.63726351 4.90952492 6.65588303 2.9375 4.875 C1.27734375 3.3671875 1.27734375 3.3671875 0 2 C0 1.34 0 0.68 0 0 Z " fill="#31499D" transform="translate(1282,587)"/>
<path d="M0 0 C0.33 0 0.66 0 1 0 C1.0814222 2.22855574 1.13938079 4.45797655 1.1875 6.6875 C1.22230469 7.92886719 1.25710938 9.17023438 1.29296875 10.44921875 C0.85511103 15.75605433 -1.81450741 18.90436667 -5 23 C-5.33 22.34 -5.66 21.68 -6 21 C-5.2578125 18.93359375 -5.2578125 18.93359375 -4.125 16.4375 C-2.31913939 12.16176818 -1.46437146 8.42994331 -1.17578125 3.8125 C-1 2 -1 2 0 0 Z " fill="#165FD2" transform="translate(1162,317)"/>
<path d="M0 0 C9.24 0 18.48 0 28 0 C28 0.33 28 0.66 28 1 C27.34926514 1.02505615 26.69853027 1.0501123 26.02807617 1.07592773 C23.08101954 1.19193702 20.1342787 1.31464115 17.1875 1.4375 C15.65125977 1.49647461 15.65125977 1.49647461 14.08398438 1.55664062 C13.10107422 1.59853516 12.11816406 1.64042969 11.10546875 1.68359375 C10.19949951 1.72025146 9.29353027 1.75690918 8.36010742 1.79467773 C5.04769287 2.08284786 3.37005908 2.62994092 1 5 C0.67 3.35 0.34 1.7 0 0 Z " fill="#1A60CB" transform="translate(1208,821)"/>
<path d="M0 0 C-2 3 -2 3 -4.390625 3.73046875 C-14.01812532 5.26929052 -14.01812532 5.26929052 -19 5 C-15.66818403 2.77878936 -12.78041679 1.91331484 -8.9375 0.8125 C-7.68839844 0.44769531 -6.43929687 0.08289063 -5.15234375 -0.29296875 C-2 -1 -2 -1 0 0 Z " fill="#1B283D" transform="translate(626,181)"/>
<path d="M0 0 C9.41002278 -0.18451025 9.41002278 -0.18451025 14 1 C12.85546875 2.55078125 12.85546875 2.55078125 11 4 C8.30078125 3.85546875 8.30078125 3.85546875 5.3125 3.1875 C4.31863281 2.97480469 3.32476563 2.76210938 2.30078125 2.54296875 C1.54152344 2.36378906 0.78226563 2.18460938 0 2 C0 1.34 0 0.68 0 0 Z " fill="#ae7c54" transform="translate(1264,674)"/>
<path d="M0 0 C3.63 0 7.26 0 11 0 C9.37660195 1.70884005 7.70680947 3.37446717 6 5 C5.34 5 4.68 5 4 5 C4 4.01 4 3.02 4 2 C2.68 2 1.36 2 0 2 C0 1.34 0 0.68 0 0 Z " fill="#2345A8" transform="translate(338,696)"/>
<path d="M0 0 C0.99 0.33 1.98 0.66 3 1 C0.81981814 5.48148494 -1.34829356 7.21849541 -6 9 C-6.66 8.67 -7.32 8.34 -8 8 C-5.36 5.36 -2.72 2.72 0 0 Z " fill="#2F343A" transform="translate(344,736)"/>
<path d="M0 0 C0.99 0.33 1.98 0.66 3 1 C2.67 1.33 2.34 1.66 2 2 C5.96 2.33 9.92 2.66 14 3 C14 3.33 14 3.66 14 4 C7.73 4 1.46 4 -5 4 C-2 1 -2 1 0 0 Z " fill="#1A1E24" transform="translate(602,643)"/>
<path d="M0 0 C0 0.99 0 1.98 0 3 C-3.67410785 4.17571451 -7.16929183 4.07366746 -11 4 C-7.26280719 0.48264206 -5.13496308 -0.47767098 0 0 Z " fill="#181E23" transform="translate(634,179)"/>
<path d="M0 0 C0.66 0 1.32 0 2 0 C3.11841676 3.35525029 2.91538821 3.97089854 1.6875 7.125 C1.42324219 7.82882812 1.15898437 8.53265625 0.88671875 9.2578125 C0 11 0 11 -2 12 C-1 3.42857143 -1 3.42857143 0 0 Z " fill="#255CC2" transform="translate(431,809)"/>
<path d="M0 0 C1.67542976 0.28604898 3.34385343 0.61781233 5 1 C1.53258866 3.95749791 -1.86873527 6.07848152 -6 8 C-6 6 -6 6 -3.5625 3.4375 C-2.716875 2.633125 -1.87125 1.82875 -1 1 C-0.67 0.67 -0.34 0.34 0 0 Z " fill="#34373D" transform="translate(157,736)"/>
<path d="M0 0 C2.64 0 5.28 0 8 0 C8 0.66 8 1.32 8 2 C8.66 2.33 9.32 2.66 10 3 C6.04 3 2.08 3 -2 3 C-1.34 2.67 -0.68 2.34 0 2 C0 1.34 0 0.68 0 0 Z " fill="#D8D9DB" transform="translate(878,683)"/>
<path d="M0 0 C1 3 1 3 0.00390625 5.48046875 C-0.47175781 6.37378906 -0.94742188 7.26710938 -1.4375 8.1875 C-1.91058594 9.08855469 -2.38367188 9.98960937 -2.87109375 10.91796875 C-3.24363281 11.60503906 -3.61617187 12.29210937 -4 13 C-4.99 13 -5.98 13 -7 13 C-3.535 6.565 -3.535 6.565 0 0 Z " fill="#1750C3" transform="translate(917,259)"/>
<path d="M0 0 C-1.125 1.5 -1.125 1.5 -3 3 C-6.1875 3.1875 -6.1875 3.1875 -9 3 C-9 2.34 -9 1.68 -9 1 C-9.66 0.67 -10.32 0.34 -11 0 C-7.18243176 -1.37432457 -3.92744671 -0.67975039 0 0 Z " fill="#3A3E44" transform="translate(843,741)"/>
<path d="M0 0 C0 0.99 0 1.98 0 3 C-1.65 3.66 -3.3 4.32 -5 5 C-5 5.66 -5 6.32 -5 7 C-6.65 7 -8.3 7 -10 7 C-7.2180632 3.72713318 -3.72045933 2.03572303 0 0 Z " fill="#1947B2" transform="translate(191,743)"/>
<path d="M0 0 C4.72065967 1.54269924 9.41664092 3.07794619 14 5 C10.06322574 6.31225809 8.2205738 5.3393954 4.3125 4.0625 C3.13300781 3.68222656 1.95351562 3.30195313 0.73828125 2.91015625 C-0.16535156 2.60980469 -1.06898437 2.30945313 -2 2 C-1.34 1.34 -0.68 0.68 0 0 Z " fill="#53545A" transform="translate(1288,193)"/>
<path d="M0 0 C3.375 -0.1875 3.375 -0.1875 7 0 C7.66 0.99 8.32 1.98 9 3 C5.7 3 2.4 3 -1 3 C-0.67 2.01 -0.34 1.02 0 0 Z " fill="#D7D8D9" transform="translate(656,693)"/>
<path d="M0 0 C3.63 0.33 7.26 0.66 11 1 C10.34 1.66 9.68 2.32 9 3 C6.6171875 2.9765625 6.6171875 2.9765625 3.875 2.625 C2.96492187 2.51414062 2.05484375 2.40328125 1.1171875 2.2890625 C0.41851563 2.19367187 -0.28015625 2.09828125 -1 2 C-0.67 1.34 -0.34 0.68 0 0 Z " fill="#2F3339" transform="translate(913,686)"/>
<path d="M0 0 C1.62723299 0.45034123 3.25173664 0.91055354 4.875 1.375 C5.77992187 1.63023437 6.68484375 1.88546875 7.6171875 2.1484375 C10 3 10 3 12 5 C10.58249437 4.88490339 9.16598831 4.75746342 7.75 4.625 C6.96109375 4.55539062 6.1721875 4.48578125 5.359375 4.4140625 C2.914123 3.98492887 1.15163097 3.21399362 -1 2 C-0.67 1.34 -0.34 0.68 0 0 Z " fill="#1E3B93" transform="translate(1190,568)"/>
<path d="M0 0 C2 2 2 2 2 6 C-1.3 6 -4.6 6 -8 6 C-8 5.67 -8 5.34 -8 5 C-6.865625 4.731875 -5.73125 4.46375 -4.5625 4.1875 C-3.386875 3.795625 -2.21125 3.40375 -1 3 C-0.67 2.01 -0.34 1.02 0 0 Z " fill="#0645B9" transform="translate(1014,847)"/>
<path d="M0 0 C2.97 0 5.94 0 9 0 C9 0.66 9 1.32 9 2 C3.375 3.125 3.375 3.125 0 2 C0 1.34 0 0.68 0 0 Z " fill="#1A1E25" transform="translate(930,684)"/>
<path d="M0 0 C0.33 1.32 0.66 2.64 1 4 C-1.31 4 -3.62 4 -6 4 C-6 3.01 -6 2.02 -6 1 C-3.92446352 0.4465236 -2.15634036 0 0 0 Z " fill="#32353D" transform="translate(1057,668)"/>
<path d="M0 0 C0.66 0.66 1.32 1.32 2 2 C1.625 5.125 1.625 5.125 1 8 C0.01 8.33 -0.98 8.66 -2 9 C-1.34 6.03 -0.68 3.06 0 0 Z " fill="#484C52" transform="translate(623,545)"/>
<path d="M0 0 C0.99 0 1.98 0 3 0 C2.67 0.99 2.34 1.98 2 3 C-2.29 3 -6.58 3 -11 3 C-11 2.67 -11 2.34 -11 2 C-10.28972656 1.93941406 -9.57945312 1.87882812 -8.84765625 1.81640625 C-7.46900391 1.69072266 -7.46900391 1.69072266 -6.0625 1.5625 C-5.14597656 1.48128906 -4.22945312 1.40007812 -3.28515625 1.31640625 C-1.03840268 1.23955024 -1.03840268 1.23955024 0 0 Z " fill="#08349D" transform="translate(888,500)"/>
<path d="M0 0 C0.66 0 1.32 0 2 0 C2 2.31 2 4.62 2 7 C1.01 7.33 0.02 7.66 -1 8 C-0.67 5.36 -0.34 2.72 0 0 Z " fill="#225EC5" transform="translate(560,835)"/>
<path d="M0 0 C1.4606285 2.64738916 2 3.89448334 2 7 C0.35 7 -1.3 7 -3 7 C-2.01 4.69 -1.02 2.38 0 0 Z " fill="#1156CB" transform="translate(895,299)"/>
<path d="M0 0 C-0.99 0.66 -1.98 1.32 -3 2 C-1.68 2.66 -0.36 3.32 1 4 C-0.98 4 -2.96 4 -5 4 C-5.66 2.68 -6.32 1.36 -7 0 C-3.86650268 -1.04449911 -3.01031744 -0.93423645 0 0 Z " fill="#2F3A49" transform="translate(639,178)"/>
<path d="M0 0 C-0.66 1.32 -1.32 2.64 -2 4 C-3.98 4 -5.96 4 -8 4 C-4.5 0 -4.5 0 0 0 Z " fill="#1C212B" transform="translate(854,738)"/>
<path d="M0 0 C0.66 0 1.32 0 2 0 C0.125 5.75 0.125 5.75 -1 8 C-1.99 7.67 -2.98 7.34 -4 7 C-2.68 4.69 -1.36 2.38 0 0 Z " fill="#1355CA" transform="translate(849,384)"/>
<path d="M0 0 C0.33 0 0.66 0 1 0 C1.25532751 3.06393013 1.21861333 4.63233212 -0.375 7.3125 C-1.179375 8.1478125 -1.179375 8.1478125 -2 9 C-2.66 9 -3.32 9 -4 9 C-2.80100302 5.9168649 -1.52299523 2.93720508 0 0 Z " fill="#1559CF" transform="translate(901,288)"/>
<path d="M0 0 C-2.91708924 1.98362069 -4.12380904 1.9876191 -7.75 1.625 C-8.8225 1.41875 -9.895 1.2125 -11 1 C-11 0.67 -11 0.34 -11 0 C-3.57142857 -1.28571429 -3.57142857 -1.28571429 0 0 Z " fill="#365AB5" transform="translate(317,701)"/>
<path d="M0 0 C0.99 0.33 1.98 0.66 3 1 C1.68 3.31 0.36 5.62 -1 8 C-1.93065133 5.39417629 -2.14917407 4.35801776 -1.0625 1.75 C-0.711875 1.1725 -0.36125 0.595 0 0 Z " fill="#1764D7" transform="translate(1266,344)"/>
</svg>
